<?xml version="1.0" encoding="UTF-8" standalone="no"?>
<svg width="60px" height="60px" viewBox="0 0 60 60" version="1.1" xmlns="http://www.w3.org/2000/svg" xmlns:xlink="http://www.w3.org/1999/xlink" xmlns:sketch="http://www.bohemiancoding.com/sketch/ns">
    <!-- Generator: Sketch 3.4.4 (17249) - http://www.bohemiancoding.com/sketch -->
    <title>fb</title>
    <desc>Created with Sketch.</desc>
    <defs></defs>
    <g id="Page-1" stroke="none" stroke-width="1" fill="none" fill-rule="evenodd" sketch:type="MSPage">
        <g id="fb" sketch:type="MSLayerGroup" fill="#00356B">
            <g id="post-facebook" sketch:type="MSShapeGroup">
                <path d="M54,0 L6,0 C2.7,0 0,2.7 0,6 L0,54 C0,57.3 2.7,60 6,60 L54,60 C57.3,60 60,57.3 60,54 L60,6 C60,2.7 57.3,0 54,0 L54,0 Z M51,6 L51,15 L45,15 C43.2,15 42,16.2 42,18 L42,24 L51,24 L51,33 L42,33 L42,54 L33,54 L33,33 L27,33 L27,24 L33,24 L33,16.5 C33,10.8 37.8,6 43.5,6 L51,6 L51,6 Z" id="Shape"></path>
            </g>
        </g>
    </g>
</svg>