<?xml version="1.0" encoding="UTF-8" standalone="no"?>
<svg width="60px" height="60px" viewBox="0 0 60 60" version="1.1" xmlns="http://www.w3.org/2000/svg" xmlns:xlink="http://www.w3.org/1999/xlink" xmlns:sketch="http://www.bohemiancoding.com/sketch/ns">
    <!-- Generator: Sketch 3.4.4 (17249) - http://www.bohemiancoding.com/sketch -->
    <title>linkedinIcon</title>
    <desc>Created with Sketch.</desc>
    <defs>
        <path id="path-1" d="M0.225,0.15 L60,0.15 L60,60 L0.225,60 L0.225,0.15 Z"></path>
    </defs>
    <g id="Page-1" stroke="none" stroke-width="1" fill="none" fill-rule="evenodd" sketch:type="MSPage">
        <g id="linkedinIcon" sketch:type="MSLayerGroup">
            <mask id="mask-2" sketch:name="Clip 2" fill="white">
                <use xlink:href="#path-1"></use>
            </mask>
            <g id="Clip-2"></g>
            <path d="M53.9925,0 L6.0075,0 C2.69625,0 0,2.69625 0,6.0075 L0,53.9925 C0,57.30375 2.69625,60 6.0075,60 L53.9925,60 C57.30375,60 60,57.30375 60,53.9925 L60,6.0075 C60,2.69625 57.30375,0 53.9925,0 L53.9925,0 Z M8.9925,23.9925 L18.00375,23.9925 L18.00375,51.0075 L8.9925,51.0075 L8.9925,23.9925 Z M13.5075,18.89625 C10.50375,18.89625 8.1,16.4925 8.1,13.5075 C8.1,10.50375 10.50375,8.1 13.5075,8.1 C16.4925,8.1 18.89625,10.50375 18.89625,13.5075 C18.89625,16.4925 16.4925,18.89625 13.5075,18.89625 L13.5075,18.89625 Z M51.0075,51.0075 L41.99625,51.0075 L41.99625,35.09625 C41.99625,32.69625 39.90375,30.6 37.5,30.6 C35.09625,30.6 33.00375,32.69625 33.00375,35.09625 L33.00375,51.0075 L23.9925,51.0075 L23.9925,23.9925 L33.00375,23.9925 L33.00375,27.59625 C34.49625,25.19625 37.7925,23.3925 40.50375,23.3925 C46.2,23.3925 51.0075,28.2 51.0075,33.89625 L51.0075,51.0075 Z" id="Fill-1" fill="#00356B" sketch:type="MSShapeGroup" mask="url(#mask-2)"></path>
        </g>
    </g>
</svg>