<?xml version="1.0" encoding="UTF-8" standalone="no"?>
<svg width="60px" height="60px" viewBox="0 0 60 60" version="1.1" xmlns="http://www.w3.org/2000/svg" xmlns:xlink="http://www.w3.org/1999/xlink" xmlns:sketch="http://www.bohemiancoding.com/sketch/ns">
    <!-- Generator: Sketch 3.4.4 (17249) - http://www.bohemiancoding.com/sketch -->
    <title>fb</title>
    <desc>Created with Sketch.</desc>
    <defs></defs>
    <g id="Page-1" stroke="none" stroke-width="1" fill="none" fill-rule="evenodd" sketch:type="MSPage">
        <g id="fb" sketch:type="MSLayerGroup">
            <g id="Page-1" sketch:type="MSShapeGroup">
                <g id="fb">
                    <g id="post-facebook">
                        <path d="M54,0 L6,0 C2.7,0 0,2.7 0,6 L0,54 C0,57.3 2.7,60 6,60 L54,60 C57.3,60 60,57.3 60,54 L60,6 C60,2.7 57.3,0 54,0 L54,0 L54,0 Z" id="Shape-path" fill="#00356B"></path>
                        <path d="M16.0894427,35.9314093 C15.6894427,36.0314093 15.4894427,35.9314093 15.3894427,35.5314093 C14.6894427,33.2314093 13.9894427,31.0314093 13.2894427,28.6314093 C13.2894427,28.9314093 13.1894427,29.2314093 13.1894427,29.4314093 C13.0894427,30.8314093 13.0894427,32.1314093 12.9894427,33.5314093 C12.9894427,33.8314093 12.8894427,34.2314093 12.7894427,34.5314093 C12.6894427,34.7314093 12.3894427,34.9314093 12.1894427,35.0314093 C11.8894427,35.1314093 11.4894427,35.0314093 11.1894427,35.1314093 C10.3894427,35.4314093 9.88944272,34.9314093 9.48944272,34.3314093 C8.98944272,33.5314093 8.48944272,32.7314093 7.98944272,31.9314093 L7.88944272,31.9314093 C7.98944272,32.6314093 8.08944272,33.4314093 8.18944272,34.1314093 C8.28944272,34.5314093 8.08944272,34.8314093 7.68944272,34.9314093 C7.58944272,34.9314093 7.48944272,35.0314093 7.48944272,35.0314093 C5.88944272,35.6314093 5.58944272,35.4314093 5.28944272,33.7314093 C4.88944272,31.2314093 4.98944272,28.8314093 5.08944272,26.3314093 C5.08944272,26.2314093 5.28944272,26.0314093 5.38944272,25.9314093 C5.68944272,25.8314093 5.98944272,25.7314093 6.28944272,25.7314093 C7.48944272,25.5314093 7.78944272,25.7314093 8.38944272,26.7314093 C8.98944272,27.8314093 9.48944272,28.8314093 10.0894427,29.9314093 C10.1894427,30.0314093 10.2894427,30.2314093 10.3894427,30.4314093 C10.6894427,29.2314093 10.7894427,28.1314093 11.0894427,27.0314093 C11.3894427,26.0314093 11.7894427,25.0314093 12.1894427,24.0314093 C12.2894427,23.8314093 12.5894427,23.6314093 12.7894427,23.6314093 C13.3894427,23.6314093 13.9894427,23.6314093 14.4894427,23.8314093 C14.7894427,23.9314093 15.0894427,24.4314093 15.1894427,24.7314093 C15.5894427,26.0314093 15.8894427,27.3314093 16.1894427,28.6314093 C16.6894427,30.9314093 17.1894427,33.1314093 17.7894427,35.5314093 C17.1894427,35.6314093 16.5894427,35.7314093 16.0894427,35.9314093 L16.0894427,35.9314093 L16.0894427,35.9314093 Z M19.1894427,35.0314093 C18.0894427,34.3314093 17.5894427,33.4314093 17.6894427,32.1314093 C17.6894427,30.6314093 17.6894427,29.2314093 18.0894427,27.7314093 C18.3894427,26.5314093 19.1894427,25.8314093 20.0894427,25.0314093 C20.9894427,24.2314093 21.7894427,24.5314093 22.6894427,24.7314093 C23.6894427,24.9314093 23.8894427,25.6314093 23.9894427,26.4314093 C24.0894427,27.8314093 24.3894427,29.3314093 23.9894427,30.7314093 C23.8894427,31.1314093 23.7894427,31.2314093 23.3894427,31.2314093 C22.3894427,31.1314093 21.3894427,31.1314093 20.2894427,31.0314093 C20.1894427,32.0314093 20.0894427,32.9314093 20.6894427,33.8314093 C21.1894427,34.6314093 21.9894427,34.8314093 22.8894427,34.4314093 C23.6894427,34.0314093 24.5894427,34.2314093 25.2894427,34.9314093 C23.6894427,36.1314093 20.6894427,36.0314093 19.1894427,35.0314093 L19.1894427,35.0314093 L19.1894427,35.0314093 Z M28.4894427,29.5314093 C28.5894427,28.7314093 28.4894427,27.9314093 28.4894427,27.1314093 L28.2894427,27.1314093 C27.8894427,28.1314093 27.5894427,29.1314093 27.1894427,30.1314093 C28.3894427,30.5314093 28.3894427,30.5314093 28.4894427,29.5314093 L28.4894427,29.5314093 L28.4894427,29.5314093 Z M28.8894427,35.5314093 C28.3894427,35.4314093 27.8894427,35.4314093 27.4894427,35.3314093 C25.7894427,34.9314093 24.7894427,33.4314093 24.6894427,31.6314093 C24.5894427,29.9314093 25.0894427,28.3314093 25.6894427,26.8314093 C26.1894427,25.8314093 27.0894427,24.9314093 27.8894427,24.0314093 C27.9894427,23.8314093 28.4894427,23.8314093 28.7894427,23.9314093 C29.3894427,24.1314093 29.9894427,24.3314093 30.4894427,24.5314093 C30.6894427,24.6314093 30.8894427,24.9314093 30.8894427,25.2314093 C30.8894427,26.1314093 30.6894427,27.1314093 30.5894427,28.0314093 C30.4894427,29.1314093 30.3894427,30.2314093 30.2894427,31.4314093 C29.2894427,32.0314093 28.1894427,31.6314093 27.0894427,31.5314093 C26.6894427,32.6314093 27.2894427,33.3314093 27.8894427,34.1314093 C28.3894427,34.7314093 29.0894427,34.7314093 29.7894427,34.5314093 C30.1894427,34.4314093 30.4894427,34.0314093 30.8894427,33.9314093 C31.0894427,33.8314093 31.2894427,33.8314093 31.4894427,33.8314093 C31.8894427,33.9314093 32.1894427,34.2314093 32.1894427,34.7314093 C31.1894427,35.3314093 30.0894427,35.8314093 28.8894427,35.5314093 L28.8894427,35.5314093 L28.8894427,35.5314093 Z M38.6894427,30.6314093 C37.8894427,30.7314093 37.1894427,30.8314093 36.3894427,30.9314093 C36.0894427,30.9314093 35.8894427,30.9314093 35.8894427,31.3314093 C35.9894427,32.0314093 35.8894427,32.8314093 35.8894427,33.5314093 C35.8894427,34.2314093 35.9894427,35.0314093 35.9894427,35.8314093 C35.3894427,35.9314093 34.8894427,36.0314093 34.2894427,36.1314093 C34.2894427,35.2314093 34.1894427,34.4314093 34.1894427,33.6314093 C34.0894427,32.8314093 34.0894427,32.0314093 33.9894427,31.1314093 C33.3894427,31.1314093 32.8894427,31.0314093 32.3894427,31.0314093 C31.8894427,31.0314093 31.5894427,30.8314093 31.5894427,30.3314093 C31.5894427,29.7314093 31.9894427,29.6314093 32.4894427,29.6314093 C32.8894427,29.6314093 33.3894427,29.6314093 33.7894427,29.7314093 C33.5894427,28.0314093 33.3894427,26.4314093 33.2894427,24.7314093 C33.1894427,23.5314093 33.1894427,22.3314093 33.1894427,21.2314093 C33.1894427,20.0314093 33.7894427,19.7314093 34.8894427,20.2314093 C36.0894427,20.7314093 35.9894427,20.8314093 35.9894427,22.0314093 C35.9894427,23.9314093 36.0894427,25.8314093 36.0894427,27.7314093 C36.0894427,28.1314093 35.9894427,28.5314093 35.9894427,29.0314093 C35.9894427,29.2314093 36.0894427,29.3314093 36.1894427,29.5314093 C36.2894427,29.4314093 36.3894427,29.2314093 36.4894427,29.1314093 C36.4894427,28.7314093 36.7894427,28.5314093 37.0894427,28.7314093 C37.7894427,29.2314093 38.2894427,29.8314093 38.9894427,30.3314093 C38.7894427,30.5314093 38.6894427,30.5314093 38.6894427,30.6314093 L38.6894427,30.6314093 L38.6894427,30.6314093 Z M43.6894427,34.8314093 C43.4894427,35.1314093 43.1894427,35.3314093 42.7894427,35.4314093 C42.1894427,35.5314093 41.5894427,35.6314093 40.9894427,35.6314093 C40.2894427,35.6314093 39.8894427,35.1314093 39.7894427,34.5314093 C39.4894427,33.0314093 39.1894427,31.4314093 38.8894427,29.8314093 C38.7894427,29.4314093 38.7894427,28.9314093 38.8894427,28.4314093 C38.8894427,27.8314093 39.1894427,27.6314093 39.7894427,27.8314093 C39.9894427,27.9314093 40.1894427,28.0314093 40.2894427,28.0314093 C41.4894427,28.5314093 41.4894427,28.6314093 41.4894427,29.8314093 C41.4894427,31.1314093 41.5894427,32.4314093 41.6894427,33.7314093 C41.6894427,33.8314093 41.7894427,34.0314093 41.8894427,34.2314093 C43.2894427,33.0314093 43.6894427,31.5314093 43.6894427,29.9314093 C43.6894427,29.5314093 43.5894427,29.1314093 43.5894427,28.7314093 C43.5894427,28.4314093 43.6894427,28.1314093 43.8894427,27.9314093 C43.9894427,27.8314093 44.2894427,27.8314093 44.5894427,27.9314093 C44.8894427,28.0314093 45.1894427,28.2314093 45.4894427,28.3314093 C46.1894427,28.6314093 46.2894427,29.1314093 46.2894427,29.8314093 C46.1894427,31.3314093 45.4894427,32.4314093 44.5894427,33.5314093 C44.2894427,33.9314093 43.9894427,34.4314093 43.6894427,34.8314093 L43.6894427,34.8314093 L43.6894427,34.8314093 Z M49.0894427,32.8314093 C51.4894427,31.5314093 52.6894427,28.9314093 51.7894427,26.5314093 C49.8894427,28.2314093 49.5894427,30.5314093 49.0894427,32.8314093 L49.0894427,32.8314093 L49.0894427,32.8314093 Z M52.7894427,32.5314093 C51.9894427,33.2314093 51.0894427,33.9314093 50.1894427,34.6314093 C49.8894427,34.8314093 49.3894427,34.9314093 48.9894427,35.1314093 C48.6894427,36.3314093 48.8894427,38.0314093 49.4894427,40.7314093 C48.7894427,40.7314093 48.1894427,40.8314093 47.4894427,40.7314093 C47.3894427,40.7314093 47.1894427,40.4314093 47.1894427,40.2314093 C46.9894427,38.6314093 46.6894427,37.0314093 46.4894427,35.4314093 C46.4894427,35.1314093 46.2894427,34.8314093 46.0894427,34.6314093 C45.4894427,34.1314093 45.5894427,33.7314093 46.2894427,33.3314093 C46.3894427,33.2314093 46.4894427,33.0314093 46.5894427,32.8314093 C46.8894427,31.4314093 47.0894427,29.9314093 47.4894427,28.5314093 C47.8894427,26.9314093 48.7894427,25.6314093 50.2894427,24.9314093 C50.6894427,24.7314093 51.2894427,24.7314093 51.6894427,24.8314093 C52.0894427,24.9314093 52.4894427,25.2314093 52.9894427,25.3314093 C54.1894427,25.6314093 54.4894427,26.5314093 54.5894427,27.5314093 C54.7894427,29.4314093 54.3894427,31.2314093 52.7894427,32.5314093 L52.7894427,32.5314093 L52.7894427,32.5314093 Z M21.3894427,29.7314093 C21.3894427,28.8314093 21.3894427,28.0314093 21.2894427,27.2314093 C21.1894427,27.2314093 21.1894427,27.2314093 21.0894427,27.1314093 C20.8894427,27.6314093 20.6894427,28.1314093 20.4894427,28.7314093 C20.2894427,29.6314093 20.2894427,29.6314093 21.3894427,29.7314093 L21.3894427,29.7314093 L21.3894427,29.7314093 Z" id="Shape_2_" fill="#FFFFFF"></path>
                    </g>
                </g>
            </g>
        </g>
    </g>
</svg>